<mxfile host="app.diagrams.net" modified="2023-09-07T09:24:11.123Z" agent="Mozilla/5.0 (Windows NT 10.0; Win64; x64) AppleWebKit/537.36 (KHTML, like Gecko) Chrome/116.0.0.0 Safari/537.36" etag="a5pHbFDx0hUF2KHxPLCV" version="21.7.2" type="device">
  <diagram id="C5RBs43oDa-KdzZeNtuy" name="Page-1">
    <mxGraphModel dx="1434" dy="790" grid="1" gridSize="10" guides="1" tooltips="1" connect="1" arrows="1" fold="1" page="1" pageScale="1" pageWidth="827" pageHeight="1169" math="0" shadow="0">
      <root>
        <mxCell id="WIyWlLk6GJQsqaUBKTNV-0" />
        <mxCell id="WIyWlLk6GJQsqaUBKTNV-1" parent="WIyWlLk6GJQsqaUBKTNV-0" />
        <mxCell id="ronty5SLc8kHgZatgLQj-1" value="Cook" style="swimlane;fontStyle=1;align=center;verticalAlign=top;childLayout=stackLayout;horizontal=1;startSize=26;horizontalStack=0;resizeParent=1;resizeParentMax=0;resizeLast=0;collapsible=1;marginBottom=0;whiteSpace=wrap;html=1;" parent="WIyWlLk6GJQsqaUBKTNV-1" vertex="1">
          <mxGeometry x="200" y="620" width="100" height="86" as="geometry" />
        </mxCell>
        <mxCell id="ronty5SLc8kHgZatgLQj-3" value="" style="line;strokeWidth=1;fillColor=none;align=left;verticalAlign=middle;spacingTop=-1;spacingLeft=3;spacingRight=3;rotatable=0;labelPosition=right;points=[];portConstraint=eastwest;strokeColor=inherit;" parent="ronty5SLc8kHgZatgLQj-1" vertex="1">
          <mxGeometry y="26" width="100" height="8" as="geometry" />
        </mxCell>
        <mxCell id="ronty5SLc8kHgZatgLQj-4" value="+ make_pizza()" style="text;strokeColor=none;fillColor=none;align=left;verticalAlign=top;spacingLeft=4;spacingRight=4;overflow=hidden;rotatable=0;points=[[0,0.5],[1,0.5]];portConstraint=eastwest;whiteSpace=wrap;html=1;" parent="ronty5SLc8kHgZatgLQj-1" vertex="1">
          <mxGeometry y="34" width="100" height="26" as="geometry" />
        </mxCell>
        <mxCell id="ronty5SLc8kHgZatgLQj-5" value="+ make_steak()" style="text;strokeColor=none;fillColor=none;align=left;verticalAlign=top;spacingLeft=4;spacingRight=4;overflow=hidden;rotatable=0;points=[[0,0.5],[1,0.5]];portConstraint=eastwest;whiteSpace=wrap;html=1;" parent="ronty5SLc8kHgZatgLQj-1" vertex="1">
          <mxGeometry y="60" width="100" height="26" as="geometry" />
        </mxCell>
        <mxCell id="ronty5SLc8kHgZatgLQj-25" value="MakeSteak" style="swimlane;fontStyle=1;align=center;verticalAlign=top;childLayout=stackLayout;horizontal=1;startSize=26;horizontalStack=0;resizeParent=1;resizeParentMax=0;resizeLast=0;collapsible=1;marginBottom=0;whiteSpace=wrap;html=1;" parent="WIyWlLk6GJQsqaUBKTNV-1" vertex="1">
          <mxGeometry x="300" y="410" width="100" height="112" as="geometry" />
        </mxCell>
        <mxCell id="ronty5SLc8kHgZatgLQj-26" value="+ executor" style="text;strokeColor=none;fillColor=none;align=left;verticalAlign=top;spacingLeft=4;spacingRight=4;overflow=hidden;rotatable=0;points=[[0,0.5],[1,0.5]];portConstraint=eastwest;whiteSpace=wrap;html=1;" parent="ronty5SLc8kHgZatgLQj-25" vertex="1">
          <mxGeometry y="26" width="100" height="26" as="geometry" />
        </mxCell>
        <mxCell id="ronty5SLc8kHgZatgLQj-27" value="" style="line;strokeWidth=1;fillColor=none;align=left;verticalAlign=middle;spacingTop=-1;spacingLeft=3;spacingRight=3;rotatable=0;labelPosition=right;points=[];portConstraint=eastwest;strokeColor=inherit;" parent="ronty5SLc8kHgZatgLQj-25" vertex="1">
          <mxGeometry y="52" width="100" height="8" as="geometry" />
        </mxCell>
        <mxCell id="ronty5SLc8kHgZatgLQj-28" value="+ __init__()" style="text;strokeColor=none;fillColor=none;align=left;verticalAlign=top;spacingLeft=4;spacingRight=4;overflow=hidden;rotatable=0;points=[[0,0.5],[1,0.5]];portConstraint=eastwest;whiteSpace=wrap;html=1;" parent="ronty5SLc8kHgZatgLQj-25" vertex="1">
          <mxGeometry y="60" width="100" height="26" as="geometry" />
        </mxCell>
        <mxCell id="ronty5SLc8kHgZatgLQj-29" value="+ execute()" style="text;strokeColor=none;fillColor=none;align=left;verticalAlign=top;spacingLeft=4;spacingRight=4;overflow=hidden;rotatable=0;points=[[0,0.5],[1,0.5]];portConstraint=eastwest;whiteSpace=wrap;html=1;" parent="ronty5SLc8kHgZatgLQj-25" vertex="1">
          <mxGeometry y="86" width="100" height="26" as="geometry" />
        </mxCell>
        <mxCell id="ronty5SLc8kHgZatgLQj-30" value="MakeCoffee" style="swimlane;fontStyle=1;align=center;verticalAlign=top;childLayout=stackLayout;horizontal=1;startSize=26;horizontalStack=0;resizeParent=1;resizeParentMax=0;resizeLast=0;collapsible=1;marginBottom=0;whiteSpace=wrap;html=1;" parent="WIyWlLk6GJQsqaUBKTNV-1" vertex="1">
          <mxGeometry x="450" y="420" width="100" height="112" as="geometry" />
        </mxCell>
        <mxCell id="ronty5SLc8kHgZatgLQj-31" value="+ executor" style="text;strokeColor=none;fillColor=none;align=left;verticalAlign=top;spacingLeft=4;spacingRight=4;overflow=hidden;rotatable=0;points=[[0,0.5],[1,0.5]];portConstraint=eastwest;whiteSpace=wrap;html=1;" parent="ronty5SLc8kHgZatgLQj-30" vertex="1">
          <mxGeometry y="26" width="100" height="26" as="geometry" />
        </mxCell>
        <mxCell id="ronty5SLc8kHgZatgLQj-32" value="" style="line;strokeWidth=1;fillColor=none;align=left;verticalAlign=middle;spacingTop=-1;spacingLeft=3;spacingRight=3;rotatable=0;labelPosition=right;points=[];portConstraint=eastwest;strokeColor=inherit;" parent="ronty5SLc8kHgZatgLQj-30" vertex="1">
          <mxGeometry y="52" width="100" height="8" as="geometry" />
        </mxCell>
        <mxCell id="ronty5SLc8kHgZatgLQj-33" value="+ __init__()" style="text;strokeColor=none;fillColor=none;align=left;verticalAlign=top;spacingLeft=4;spacingRight=4;overflow=hidden;rotatable=0;points=[[0,0.5],[1,0.5]];portConstraint=eastwest;whiteSpace=wrap;html=1;" parent="ronty5SLc8kHgZatgLQj-30" vertex="1">
          <mxGeometry y="60" width="100" height="26" as="geometry" />
        </mxCell>
        <mxCell id="ronty5SLc8kHgZatgLQj-34" value="+ execute()" style="text;strokeColor=none;fillColor=none;align=left;verticalAlign=top;spacingLeft=4;spacingRight=4;overflow=hidden;rotatable=0;points=[[0,0.5],[1,0.5]];portConstraint=eastwest;whiteSpace=wrap;html=1;" parent="ronty5SLc8kHgZatgLQj-30" vertex="1">
          <mxGeometry y="86" width="100" height="26" as="geometry" />
        </mxCell>
        <mxCell id="ronty5SLc8kHgZatgLQj-35" value="MakeDrink" style="swimlane;fontStyle=1;align=center;verticalAlign=top;childLayout=stackLayout;horizontal=1;startSize=26;horizontalStack=0;resizeParent=1;resizeParentMax=0;resizeLast=0;collapsible=1;marginBottom=0;whiteSpace=wrap;html=1;" parent="WIyWlLk6GJQsqaUBKTNV-1" vertex="1">
          <mxGeometry x="590" y="410" width="100" height="112" as="geometry" />
        </mxCell>
        <mxCell id="ronty5SLc8kHgZatgLQj-36" value="+ executor" style="text;strokeColor=none;fillColor=none;align=left;verticalAlign=top;spacingLeft=4;spacingRight=4;overflow=hidden;rotatable=0;points=[[0,0.5],[1,0.5]];portConstraint=eastwest;whiteSpace=wrap;html=1;" parent="ronty5SLc8kHgZatgLQj-35" vertex="1">
          <mxGeometry y="26" width="100" height="26" as="geometry" />
        </mxCell>
        <mxCell id="ronty5SLc8kHgZatgLQj-37" value="" style="line;strokeWidth=1;fillColor=none;align=left;verticalAlign=middle;spacingTop=-1;spacingLeft=3;spacingRight=3;rotatable=0;labelPosition=right;points=[];portConstraint=eastwest;strokeColor=inherit;" parent="ronty5SLc8kHgZatgLQj-35" vertex="1">
          <mxGeometry y="52" width="100" height="8" as="geometry" />
        </mxCell>
        <mxCell id="ronty5SLc8kHgZatgLQj-38" value="+ __init__()" style="text;strokeColor=none;fillColor=none;align=left;verticalAlign=top;spacingLeft=4;spacingRight=4;overflow=hidden;rotatable=0;points=[[0,0.5],[1,0.5]];portConstraint=eastwest;whiteSpace=wrap;html=1;" parent="ronty5SLc8kHgZatgLQj-35" vertex="1">
          <mxGeometry y="60" width="100" height="26" as="geometry" />
        </mxCell>
        <mxCell id="ronty5SLc8kHgZatgLQj-39" value="+ execute()" style="text;strokeColor=none;fillColor=none;align=left;verticalAlign=top;spacingLeft=4;spacingRight=4;overflow=hidden;rotatable=0;points=[[0,0.5],[1,0.5]];portConstraint=eastwest;whiteSpace=wrap;html=1;" parent="ronty5SLc8kHgZatgLQj-35" vertex="1">
          <mxGeometry y="86" width="100" height="26" as="geometry" />
        </mxCell>
        <mxCell id="ronty5SLc8kHgZatgLQj-40" value="MakePizza" style="swimlane;fontStyle=1;align=center;verticalAlign=top;childLayout=stackLayout;horizontal=1;startSize=26;horizontalStack=0;resizeParent=1;resizeParentMax=0;resizeLast=0;collapsible=1;marginBottom=0;whiteSpace=wrap;html=1;" parent="WIyWlLk6GJQsqaUBKTNV-1" vertex="1">
          <mxGeometry x="180" y="390" width="100" height="112" as="geometry" />
        </mxCell>
        <mxCell id="ronty5SLc8kHgZatgLQj-41" value="+ executor" style="text;strokeColor=none;fillColor=none;align=left;verticalAlign=top;spacingLeft=4;spacingRight=4;overflow=hidden;rotatable=0;points=[[0,0.5],[1,0.5]];portConstraint=eastwest;whiteSpace=wrap;html=1;" parent="ronty5SLc8kHgZatgLQj-40" vertex="1">
          <mxGeometry y="26" width="100" height="26" as="geometry" />
        </mxCell>
        <mxCell id="ronty5SLc8kHgZatgLQj-42" value="" style="line;strokeWidth=1;fillColor=none;align=left;verticalAlign=middle;spacingTop=-1;spacingLeft=3;spacingRight=3;rotatable=0;labelPosition=right;points=[];portConstraint=eastwest;strokeColor=inherit;" parent="ronty5SLc8kHgZatgLQj-40" vertex="1">
          <mxGeometry y="52" width="100" height="8" as="geometry" />
        </mxCell>
        <mxCell id="ronty5SLc8kHgZatgLQj-43" value="+ __init__()" style="text;strokeColor=none;fillColor=none;align=left;verticalAlign=top;spacingLeft=4;spacingRight=4;overflow=hidden;rotatable=0;points=[[0,0.5],[1,0.5]];portConstraint=eastwest;whiteSpace=wrap;html=1;" parent="ronty5SLc8kHgZatgLQj-40" vertex="1">
          <mxGeometry y="60" width="100" height="26" as="geometry" />
        </mxCell>
        <mxCell id="ronty5SLc8kHgZatgLQj-44" value="+ execute()" style="text;strokeColor=none;fillColor=none;align=left;verticalAlign=top;spacingLeft=4;spacingRight=4;overflow=hidden;rotatable=0;points=[[0,0.5],[1,0.5]];portConstraint=eastwest;whiteSpace=wrap;html=1;" parent="ronty5SLc8kHgZatgLQj-40" vertex="1">
          <mxGeometry y="86" width="100" height="26" as="geometry" />
        </mxCell>
        <mxCell id="ronty5SLc8kHgZatgLQj-45" value="Waiter" style="swimlane;fontStyle=1;align=center;verticalAlign=top;childLayout=stackLayout;horizontal=1;startSize=26;horizontalStack=0;resizeParent=1;resizeParentMax=0;resizeLast=0;collapsible=1;marginBottom=0;whiteSpace=wrap;html=1;" parent="WIyWlLk6GJQsqaUBKTNV-1" vertex="1">
          <mxGeometry x="303" y="40" width="220" height="164" as="geometry" />
        </mxCell>
        <mxCell id="ronty5SLc8kHgZatgLQj-49" value="+ history" style="text;strokeColor=none;fillColor=none;align=left;verticalAlign=top;spacingLeft=4;spacingRight=4;overflow=hidden;rotatable=0;points=[[0,0.5],[1,0.5]];portConstraint=eastwest;whiteSpace=wrap;html=1;" parent="ronty5SLc8kHgZatgLQj-45" vertex="1">
          <mxGeometry y="26" width="220" height="26" as="geometry" />
        </mxCell>
        <mxCell id="ronty5SLc8kHgZatgLQj-46" value="" style="line;strokeWidth=1;fillColor=none;align=left;verticalAlign=middle;spacingTop=-1;spacingLeft=3;spacingRight=3;rotatable=0;labelPosition=right;points=[];portConstraint=eastwest;strokeColor=inherit;" parent="ronty5SLc8kHgZatgLQj-45" vertex="1">
          <mxGeometry y="52" width="220" height="8" as="geometry" />
        </mxCell>
        <mxCell id="ronty5SLc8kHgZatgLQj-50" value="+ __init__()" style="text;strokeColor=none;fillColor=none;align=left;verticalAlign=top;spacingLeft=4;spacingRight=4;overflow=hidden;rotatable=0;points=[[0,0.5],[1,0.5]];portConstraint=eastwest;whiteSpace=wrap;html=1;" parent="ronty5SLc8kHgZatgLQj-45" vertex="1">
          <mxGeometry y="60" width="220" height="26" as="geometry" />
        </mxCell>
        <mxCell id="ronty5SLc8kHgZatgLQj-47" value="+ set_command(command: Command)" style="text;strokeColor=none;fillColor=none;align=left;verticalAlign=top;spacingLeft=4;spacingRight=4;overflow=hidden;rotatable=0;points=[[0,0.5],[1,0.5]];portConstraint=eastwest;whiteSpace=wrap;html=1;" parent="ronty5SLc8kHgZatgLQj-45" vertex="1">
          <mxGeometry y="86" width="220" height="26" as="geometry" />
        </mxCell>
        <mxCell id="ronty5SLc8kHgZatgLQj-48" value="+ undo_command()" style="text;strokeColor=none;fillColor=none;align=left;verticalAlign=top;spacingLeft=4;spacingRight=4;overflow=hidden;rotatable=0;points=[[0,0.5],[1,0.5]];portConstraint=eastwest;whiteSpace=wrap;html=1;" parent="ronty5SLc8kHgZatgLQj-45" vertex="1">
          <mxGeometry y="112" width="220" height="26" as="geometry" />
        </mxCell>
        <mxCell id="ronty5SLc8kHgZatgLQj-51" value="+ execute_commands()" style="text;strokeColor=none;fillColor=none;align=left;verticalAlign=top;spacingLeft=4;spacingRight=4;overflow=hidden;rotatable=0;points=[[0,0.5],[1,0.5]];portConstraint=eastwest;whiteSpace=wrap;html=1;" parent="ronty5SLc8kHgZatgLQj-45" vertex="1">
          <mxGeometry y="138" width="220" height="26" as="geometry" />
        </mxCell>
        <mxCell id="ronty5SLc8kHgZatgLQj-56" value="&lt;i style=&quot;font-weight: normal;&quot;&gt;Command&lt;/i&gt;" style="swimlane;fontStyle=1;align=center;verticalAlign=top;childLayout=stackLayout;horizontal=1;startSize=26;horizontalStack=0;resizeParent=1;resizeParentMax=0;resizeLast=0;collapsible=1;marginBottom=0;whiteSpace=wrap;html=1;" parent="WIyWlLk6GJQsqaUBKTNV-1" vertex="1">
          <mxGeometry x="380" y="256" width="100" height="60" as="geometry" />
        </mxCell>
        <mxCell id="ronty5SLc8kHgZatgLQj-58" value="" style="line;strokeWidth=1;fillColor=none;align=left;verticalAlign=middle;spacingTop=-1;spacingLeft=3;spacingRight=3;rotatable=0;labelPosition=right;points=[];portConstraint=eastwest;strokeColor=inherit;" parent="ronty5SLc8kHgZatgLQj-56" vertex="1">
          <mxGeometry y="26" width="100" height="8" as="geometry" />
        </mxCell>
        <mxCell id="ronty5SLc8kHgZatgLQj-59" value="+ execute()" style="text;strokeColor=none;fillColor=none;align=left;verticalAlign=top;spacingLeft=4;spacingRight=4;overflow=hidden;rotatable=0;points=[[0,0.5],[1,0.5]];portConstraint=eastwest;whiteSpace=wrap;html=1;" parent="ronty5SLc8kHgZatgLQj-56" vertex="1">
          <mxGeometry y="34" width="100" height="26" as="geometry" />
        </mxCell>
        <mxCell id="ronty5SLc8kHgZatgLQj-6" value="Barmen" style="swimlane;fontStyle=1;align=center;verticalAlign=top;childLayout=stackLayout;horizontal=1;startSize=26;horizontalStack=0;resizeParent=1;resizeParentMax=0;resizeLast=0;collapsible=1;marginBottom=0;whiteSpace=wrap;html=1;" parent="WIyWlLk6GJQsqaUBKTNV-1" vertex="1">
          <mxGeometry x="510" y="615" width="100" height="86" as="geometry" />
        </mxCell>
        <mxCell id="ronty5SLc8kHgZatgLQj-7" value="" style="line;strokeWidth=1;fillColor=none;align=left;verticalAlign=middle;spacingTop=-1;spacingLeft=3;spacingRight=3;rotatable=0;labelPosition=right;points=[];portConstraint=eastwest;strokeColor=inherit;" parent="ronty5SLc8kHgZatgLQj-6" vertex="1">
          <mxGeometry y="26" width="100" height="8" as="geometry" />
        </mxCell>
        <mxCell id="ronty5SLc8kHgZatgLQj-8" value="+ make_drink()" style="text;strokeColor=none;fillColor=none;align=left;verticalAlign=top;spacingLeft=4;spacingRight=4;overflow=hidden;rotatable=0;points=[[0,0.5],[1,0.5]];portConstraint=eastwest;whiteSpace=wrap;html=1;" parent="ronty5SLc8kHgZatgLQj-6" vertex="1">
          <mxGeometry y="34" width="100" height="26" as="geometry" />
        </mxCell>
        <mxCell id="ronty5SLc8kHgZatgLQj-9" value="+ make_coffee()" style="text;strokeColor=none;fillColor=none;align=left;verticalAlign=top;spacingLeft=4;spacingRight=4;overflow=hidden;rotatable=0;points=[[0,0.5],[1,0.5]];portConstraint=eastwest;whiteSpace=wrap;html=1;" parent="ronty5SLc8kHgZatgLQj-6" vertex="1">
          <mxGeometry y="60" width="100" height="26" as="geometry" />
        </mxCell>
        <mxCell id="ronty5SLc8kHgZatgLQj-60" value="" style="endArrow=block;dashed=1;endFill=0;endSize=12;html=1;rounded=0;exitX=0.75;exitY=0;exitDx=0;exitDy=0;entryX=0.079;entryY=1.099;entryDx=0;entryDy=0;entryPerimeter=0;" parent="WIyWlLk6GJQsqaUBKTNV-1" source="ronty5SLc8kHgZatgLQj-40" target="ronty5SLc8kHgZatgLQj-59" edge="1">
          <mxGeometry width="160" relative="1" as="geometry">
            <mxPoint x="160" y="460" as="sourcePoint" />
            <mxPoint x="320" y="460" as="targetPoint" />
          </mxGeometry>
        </mxCell>
        <mxCell id="ronty5SLc8kHgZatgLQj-61" value="" style="endArrow=block;dashed=1;endFill=0;endSize=12;html=1;rounded=0;exitX=0.75;exitY=0;exitDx=0;exitDy=0;entryX=0.238;entryY=0.993;entryDx=0;entryDy=0;entryPerimeter=0;" parent="WIyWlLk6GJQsqaUBKTNV-1" source="ronty5SLc8kHgZatgLQj-25" target="ronty5SLc8kHgZatgLQj-59" edge="1">
          <mxGeometry width="160" relative="1" as="geometry">
            <mxPoint x="330" y="422" as="sourcePoint" />
            <mxPoint x="413" y="538" as="targetPoint" />
          </mxGeometry>
        </mxCell>
        <mxCell id="ronty5SLc8kHgZatgLQj-62" value="" style="endArrow=block;dashed=1;endFill=0;endSize=12;html=1;rounded=0;entryX=0.617;entryY=0.967;entryDx=0;entryDy=0;exitX=0.25;exitY=0;exitDx=0;exitDy=0;entryPerimeter=0;" parent="WIyWlLk6GJQsqaUBKTNV-1" source="ronty5SLc8kHgZatgLQj-30" target="ronty5SLc8kHgZatgLQj-59" edge="1">
          <mxGeometry width="160" relative="1" as="geometry">
            <mxPoint x="440" y="430" as="sourcePoint" />
            <mxPoint x="370" y="450" as="targetPoint" />
          </mxGeometry>
        </mxCell>
        <mxCell id="ronty5SLc8kHgZatgLQj-63" value="" style="endArrow=block;dashed=1;endFill=0;endSize=12;html=1;rounded=0;entryX=0.865;entryY=1.073;entryDx=0;entryDy=0;exitX=0.25;exitY=0;exitDx=0;exitDy=0;entryPerimeter=0;" parent="WIyWlLk6GJQsqaUBKTNV-1" source="ronty5SLc8kHgZatgLQj-35" target="ronty5SLc8kHgZatgLQj-59" edge="1">
          <mxGeometry width="160" relative="1" as="geometry">
            <mxPoint x="523" y="392" as="sourcePoint" />
            <mxPoint x="490" y="488" as="targetPoint" />
          </mxGeometry>
        </mxCell>
        <mxCell id="ronty5SLc8kHgZatgLQj-64" value="" style="endArrow=diamondThin;endFill=0;endSize=24;html=1;rounded=0;exitX=0.506;exitY=1.065;exitDx=0;exitDy=0;exitPerimeter=0;entryX=0.427;entryY=0.024;entryDx=0;entryDy=0;entryPerimeter=0;" parent="WIyWlLk6GJQsqaUBKTNV-1" source="ronty5SLc8kHgZatgLQj-51" target="ronty5SLc8kHgZatgLQj-56" edge="1">
          <mxGeometry width="160" relative="1" as="geometry">
            <mxPoint x="430" y="230" as="sourcePoint" />
            <mxPoint x="590" y="230" as="targetPoint" />
          </mxGeometry>
        </mxCell>
        <mxCell id="ronty5SLc8kHgZatgLQj-76" value="&lt;b&gt;Client&lt;/b&gt;" style="html=1;whiteSpace=wrap;" parent="WIyWlLk6GJQsqaUBKTNV-1" vertex="1">
          <mxGeometry x="160" y="97" width="80" height="33" as="geometry" />
        </mxCell>
        <mxCell id="ronty5SLc8kHgZatgLQj-77" value="" style="html=1;verticalAlign=bottom;endArrow=block;curved=0;rounded=0;entryX=0;entryY=0.5;entryDx=0;entryDy=0;" parent="WIyWlLk6GJQsqaUBKTNV-1" target="ronty5SLc8kHgZatgLQj-50" edge="1">
          <mxGeometry width="80" relative="1" as="geometry">
            <mxPoint x="240" y="113.16" as="sourcePoint" />
            <mxPoint x="300" y="113" as="targetPoint" />
          </mxGeometry>
        </mxCell>
        <mxCell id="DXvgC9yvS7ztttWyZ5TH-0" value="" style="endArrow=diamondThin;endFill=0;endSize=24;html=1;rounded=0;entryX=0.58;entryY=1.115;entryDx=0;entryDy=0;entryPerimeter=0;exitX=0.5;exitY=0;exitDx=0;exitDy=0;" edge="1" parent="WIyWlLk6GJQsqaUBKTNV-1" source="ronty5SLc8kHgZatgLQj-1" target="ronty5SLc8kHgZatgLQj-44">
          <mxGeometry width="160" relative="1" as="geometry">
            <mxPoint x="100" y="584" as="sourcePoint" />
            <mxPoint x="260" y="584" as="targetPoint" />
          </mxGeometry>
        </mxCell>
        <mxCell id="DXvgC9yvS7ztttWyZ5TH-1" value="" style="endArrow=diamondThin;endFill=0;endSize=24;html=1;rounded=0;entryX=0.29;entryY=1.038;entryDx=0;entryDy=0;entryPerimeter=0;exitX=0.75;exitY=0;exitDx=0;exitDy=0;" edge="1" parent="WIyWlLk6GJQsqaUBKTNV-1" source="ronty5SLc8kHgZatgLQj-1" target="ronty5SLc8kHgZatgLQj-29">
          <mxGeometry width="160" relative="1" as="geometry">
            <mxPoint x="356" y="665" as="sourcePoint" />
            <mxPoint x="344" y="550" as="targetPoint" />
          </mxGeometry>
        </mxCell>
        <mxCell id="DXvgC9yvS7ztttWyZ5TH-2" value="" style="endArrow=diamondThin;endFill=0;endSize=24;html=1;rounded=0;entryX=0.37;entryY=0.962;entryDx=0;entryDy=0;entryPerimeter=0;exitX=0.25;exitY=0;exitDx=0;exitDy=0;" edge="1" parent="WIyWlLk6GJQsqaUBKTNV-1" source="ronty5SLc8kHgZatgLQj-6" target="ronty5SLc8kHgZatgLQj-34">
          <mxGeometry width="160" relative="1" as="geometry">
            <mxPoint x="472" y="685" as="sourcePoint" />
            <mxPoint x="460" y="570" as="targetPoint" />
          </mxGeometry>
        </mxCell>
        <mxCell id="DXvgC9yvS7ztttWyZ5TH-3" value="" style="endArrow=diamondThin;endFill=0;endSize=24;html=1;rounded=0;entryX=0.32;entryY=1.038;entryDx=0;entryDy=0;entryPerimeter=0;exitX=0.75;exitY=0;exitDx=0;exitDy=0;" edge="1" parent="WIyWlLk6GJQsqaUBKTNV-1" source="ronty5SLc8kHgZatgLQj-6" target="ronty5SLc8kHgZatgLQj-39">
          <mxGeometry width="160" relative="1" as="geometry">
            <mxPoint x="646" y="685" as="sourcePoint" />
            <mxPoint x="634" y="570" as="targetPoint" />
          </mxGeometry>
        </mxCell>
      </root>
    </mxGraphModel>
  </diagram>
</mxfile>
